<svg height="40" viewBox="0 0 256 256" width="50" xmlns="http://www.w3.org/2000/svg"><path d="m233.74 101.208v117.321a13.981 13.981 0 0 1 -13.98 13.98h-183.52a13.981 13.981 0 0 1 -13.98-13.98v-117.321a13.981 13.981 0 0 1 13.98-13.979h52.91a49.776 49.776 0 0 0 23.6 16.219 7.248 7.248 0 0 1 1.18.49 7.859 7.859 0 0 1 3.53 3.52l10.54 20.96 10.54-20.96a7.859 7.859 0 0 1 3.53-3.52.01.01 0 0 0 .01-.01 8.093 8.093 0 0 1 1.17-.48 49.03 49.03 0 0 0 23.62-16.219h52.89a13.981 13.981 0 0 1 13.98 13.979z" fill="#efefef"/><path d="m219.46 108.938v101.87a5 5 0 0 1 -5 5h-172.92a5 5 0 0 1 -5-5v-101.87a5 5 0 0 1 5-5h72.39a7.859 7.859 0 0 1 3.53 3.52l10.54 20.96 10.54-20.96a7.859 7.859 0 0 1 3.53-3.52h72.39a5 5 0 0 1 5 5z" fill="#afafaf"/><rect fill="#f0c020" height="16.75" rx="3" width="52.333" x="148.457" y="132.26"/><circle cx="90.762" cy="159.871" fill="#efefef" r="7.58"/><path d="m165.45 23.069a49.857 49.857 0 1 0 -52.7 80.379 7.248 7.248 0 0 1 1.18.49 7.859 7.859 0 0 1 3.53 3.52l10.54 20.96 10.54-20.96a7.859 7.859 0 0 1 3.53-3.52.01.01 0 0 0 .01-.01 8.093 8.093 0 0 1 1.17-.48 49.03 49.03 0 0 0 23.62-16.219c14.37-18.061 15.25-45.26-1.42-64.16z" fill="#13bf6d"/><path d="m216.985 47.606c-3.683-1.217-7.487-2.281-9.623-11.48-1.967 8.473-5.118 9.992-9.623 11.48 7.347 2.428 8.455 6.447 9.623 11.481 2.013-8.677 5.343-10.067 9.623-11.481z" fill="#f0c020"/><path d="m197.787 20.074c-3.683-1.217-7.487-2.281-9.623-11.481-1.967 8.474-5.118 9.993-9.622 11.481 7.346 2.427 8.455 6.447 9.622 11.48 2.013-8.676 5.343-10.066 9.623-11.48z" fill="#f0c020"/><path d="m63.594 57.594c-3.683-1.217-7.487-2.281-9.623-11.481-1.971 8.474-5.118 9.992-9.622 11.481 7.346 2.427 8.455 6.447 9.622 11.48 2.013-8.674 5.343-10.066 9.623-11.48z" fill="#f0c020"/><g fill="#efefef"><path d="m63.7 232.511-2.01 17.36h-15.86v-17.36z"/><path d="m210.17 232.511v17.36h-15.86l-2.01-17.36z"/><path d="m209.085 208.372h-3.17a2.5 2.5 0 0 1 0-5h3.17a2.5 2.5 0 0 1 0 5zm-13.17 0h-149a2.5 2.5 0 0 1 -2.5-2.5v-89a2.5 2.5 0 0 1 5 0v86.5h146.5a2.5 2.5 0 1 1 0 5z"/></g><path d="m89.229 67.714q-.154-.51-.3-1.023a2.5 2.5 0 0 1 4.822-1.321q.123.45.26.9a2.5 2.5 0 1 1 -4.787 1.444zm.752-9.061a2.5 2.5 0 0 1 -2.5-2.481v-.209a40.512 40.512 0 0 1 69.153-28.617 2.5 2.5 0 0 1 -3.535 3.536 35.512 35.512 0 0 0 -60.618 25.081v.171a2.5 2.5 0 0 1 -2.481 2.519z" fill="#76ffba"/><path d="m209.085 117.288h-3.219a2.5 2.5 0 0 1 0-5h3.219a2.5 2.5 0 0 1 0 5zm-13.219 0h-41a2.5 2.5 0 0 1 0-5h41a2.5 2.5 0 0 1 0 5z" fill="#efefef"/><path d="m196.963 49.955c6.218 2.054 6.923 5.092 7.989 9.691a2.474 2.474 0 0 0 4.819 0c1.772-7.637 4.38-8.5 7.989-9.691a2.476 2.476 0 0 0 0-4.7c-3.467-1.142-6.176-1.88-7.989-9.691a2.475 2.475 0 0 0 -4.818 0c-1.773 7.637-4.246 8.455-7.99 9.692a2.476 2.476 0 0 0 0 4.699zm10.408-6.6a12.623 12.623 0 0 0 3.7 4.279 12.238 12.238 0 0 0 -3.659 4.128 12.836 12.836 0 0 0 -3.872-4.094 12.264 12.264 0 0 0 3.831-4.318z"/><path d="m198.563 17.725c-3.468-1.142-6.176-1.881-7.99-9.691a2.475 2.475 0 0 0 -4.818 0c-1.773 7.637-4.246 8.455-7.989 9.692a2.476 2.476 0 0 0 0 4.7c6.217 2.054 6.922 5.092 7.989 9.691a2.474 2.474 0 0 0 4.819 0c1.771-7.637 4.379-8.5 7.989-9.691a2.476 2.476 0 0 0 0-4.701zm-10.349 6.5a12.852 12.852 0 0 0 -3.873-4.1 12.263 12.263 0 0 0 3.833-4.312 12.622 12.622 0 0 0 3.7 4.279 12.225 12.225 0 0 0 -3.66 4.133z"/><path d="m51.562 69.633a2.474 2.474 0 0 0 4.819 0c1.771-7.636 4.379-8.5 7.989-9.69a2.476 2.476 0 0 0 0-4.7c-3.468-1.142-6.176-1.88-7.99-9.691a2.475 2.475 0 0 0 -4.818 0c-1.773 7.637-4.246 8.455-7.989 9.692a2.476 2.476 0 0 0 0 4.7c6.217 2.056 6.927 5.091 7.989 9.689zm2.419-16.295a12.631 12.631 0 0 0 3.7 4.279 12.225 12.225 0 0 0 -3.658 4.128 12.852 12.852 0 0 0 -3.873-4.095 12.263 12.263 0 0 0 3.831-4.312z"/><path d="m203.29 135.258a5.511 5.511 0 0 0 -5.5-5.5h-46.33a5.51 5.51 0 0 0 -5.5 5.5v10.75a5.509 5.509 0 0 0 5.5 5.5h46.33a5.51 5.51 0 0 0 5.5-5.5zm-5 10.75a.5.5 0 0 1 -.5.5h-46.33a.5.5 0 0 1 -.5-.5v-10.75a.507.507 0 0 1 .5-.5h46.33a.508.508 0 0 1 .5.5z"/><path d="m152.79 159.829h-4.33a2.5 2.5 0 1 0 0 5h4.33a2.5 2.5 0 1 0 0-5z"/><path d="m176.79 159.829h-4.33a2.5 2.5 0 1 0 0 5h4.33a2.5 2.5 0 1 0 0-5z"/><path d="m200.79 159.829h-4.33a2.5 2.5 0 1 0 0 5h4.33a2.5 2.5 0 1 0 0-5z"/><path d="m152.79 171.668h-4.33a2.5 2.5 0 1 0 0 4.99h4.33a2.5 2.5 0 1 0 0-4.99z"/><path d="m176.79 171.668h-4.33a2.5 2.5 0 1 0 0 5h4.33a2.5 2.5 0 1 0 0-5z"/><path d="m200.79 171.668h-4.33a2.5 2.5 0 0 0 0 5h4.33a2.5 2.5 0 0 0 0-5z"/><path d="m152.79 183.5h-4.33a2.5 2.5 0 0 0 0 5h4.33a2.5 2.5 0 0 0 0-5z"/><path d="m176.79 183.5h-4.33a2.5 2.5 0 0 0 0 5h4.33a2.5 2.5 0 0 0 0-5z"/><path d="m200.79 183.5h-4.33a2.5 2.5 0 0 0 0 5h4.33a2.5 2.5 0 0 0 0-5z"/><path d="m122.59 162.368a2.5 2.5 0 0 0 0-5h-6.873a24.836 24.836 0 0 0 -5.538-13.378l4.861-4.862a2.5 2.5 0 0 0 0-3.53 2.555 2.555 0 0 0 -3.54 0l-4.857 4.857a24.847 24.847 0 0 0 -13.383-5.544v-6.872a2.5 2.5 0 0 0 -5 0v6.872a24.808 24.808 0 0 0 -13.38 5.547l-4.86-4.86a2.542 2.542 0 0 0 -3.53 0 2.487 2.487 0 0 0 0 3.53l4.859 4.86a24.815 24.815 0 0 0 -5.547 13.38h-6.872a2.5 2.5 0 0 0 0 5h6.87a24.849 24.849 0 0 0 5.545 13.383l-4.857 4.857a2.5 2.5 0 0 0 3.53 3.54l4.861-4.861a24.851 24.851 0 0 0 13.379 5.539v6.874a2.5 2.5 0 0 0 5 0v-6.872a24.888 24.888 0 0 0 13.381-5.536l4.859 4.858a2.5 2.5 0 0 0 3.54-3.54l-4.859-4.858a24.875 24.875 0 0 0 5.536-13.382zm-31.83 17.58a20.08 20.08 0 1 1 20.08-20.08 20.151 20.151 0 0 1 -20.08 20.08z"/><path d="m90.76 149.789a10.08 10.08 0 1 0 10.08 10.079 10.1 10.1 0 0 0 -10.08-10.079zm0 15.159a5.08 5.08 0 1 1 5.08-5.08 5.1 5.1 0 0 1 -5.08 5.08z"/><path d="m45.83 252.372h15.86a2.5 2.5 0 0 0 2.483-2.213l1.755-15.151h124.144l1.754 15.151a2.5 2.5 0 0 0 2.484 2.213h15.86a2.5 2.5 0 0 0 2.5-2.5v-14.864h7.09a16.5 16.5 0 0 0 16.48-16.48v-117.32a16.494 16.494 0 0 0 -16.48-16.479h-48a52.1 52.1 0 0 0 8.174-22.551 2.5 2.5 0 1 0 -4.96-.59 47.2 47.2 0 0 1 -32.48 39.48 10.549 10.549 0 0 0 -6.19 5.27l-8.3 16.51-8.31-16.51a10.551 10.551 0 0 0 -6.19-5.279c-32.82-10.51-43.186-51.27-21.07-76.341a47.373 47.373 0 0 1 71.15 0 46.544 46.544 0 0 1 9.859 18.051 2.544 2.544 0 0 0 3.091 1.71 2.489 2.489 0 0 0 1.72-3.071v-.02a51.345 51.345 0 0 0 -10.931-19.97 52.118 52.118 0 0 0 -39.3-17.79h-.04a52.353 52.353 0 0 0 -43.731 81.1h-48.012a16.5 16.5 0 0 0 -16.48 16.479v42.1a2.5 2.5 0 0 0 5 0v-42.1a11.517 11.517 0 0 1 11.48-11.478h51.74a53.309 53.309 0 0 0 14.053 11.709h-60.493a7.516 7.516 0 0 0 -7.5 7.5v101.871a7.516 7.516 0 0 0 7.5 7.5h172.92a7.516 7.516 0 0 0 7.5-7.5v-21.871a2.5 2.5 0 0 0 -5 0v21.871a2.508 2.508 0 0 1 -2.5 2.5h-172.92a2.5 2.5 0 0 1 -2.5-2.5v-101.871a2.5 2.5 0 0 1 2.5-2.5h71.712a5.247 5.247 0 0 1 1.968 2.141l10.55 20.96a2.492 2.492 0 0 0 4.459 0l10.541-20.96a5.442 5.442 0 0 1 1.978-2.141h71.712a2.508 2.508 0 0 1 2.5 2.5v60a2.5 2.5 0 0 0 5 0v-60a7.516 7.516 0 0 0 -7.5-7.5h-60.494a53.394 53.394 0 0 0 14.054-11.709h51.74a11.518 11.518 0 0 1 11.48 11.479v117.32a11.519 11.519 0 0 1 -11.48 11.48h-183.52a11.518 11.518 0 0 1 -11.48-11.48v-55.219a2.5 2.5 0 0 0 -5 0v55.219a16.508 16.508 0 0 0 16.48 16.48h7.09v14.864a2.5 2.5 0 0 0 2.5 2.5zm161.84-17.36v12.36h-11.133l-1.432-12.36zm-159.34 0h12.564l-1.431 12.36h-11.133z"/><path d="m127.558 84.034a2.5 2.5 0 0 0 2.5-2.5v-5.319h1.99a10.559 10.559 0 0 0 0-21.118h-8.974a5.56 5.56 0 0 1 -3.917-9.505 5.475 5.475 0 0 1 3.976-1.613h8.593a7.612 7.612 0 0 1 6.274 3.581 2.463 2.463 0 0 0 3.429.714 2.535 2.535 0 0 0 .732-3.486 12.455 12.455 0 0 0 -10.423-5.809h-1.683v-5.319a2.5 2.5 0 1 0 -5 0v5.319h-1.989a10.559 10.559 0 0 0 0 21.118h8.974a5.559 5.559 0 1 1 -.017 11.118h-9.413a7.482 7.482 0 0 1 -5.677-2.755 2.5 2.5 0 0 0 -3.842 3.2 12.484 12.484 0 0 0 9.5 4.554h2.467v5.319a2.5 2.5 0 0 0 2.5 2.501z"/><circle cx="22.26" cy="153.309" r="2.5"/><circle cx="219.46" cy="178.938" r="2.5"/><path d="m175.14 52.1a2.5 2.5 0 1 0 2.29-2.69 2.494 2.494 0 0 0 -2.29 2.69z"/></svg>